<?xml version="1.0" encoding="utf-8"?>
<!-- Generator: Adobe Illustrator 27.4.1, SVG Export Plug-In . SVG Version: 6.00 Build 0)  -->
<svg version="1.1" id="Layer_1" xmlns="http://www.w3.org/2000/svg" xmlns:xlink="http://www.w3.org/1999/xlink" x="0px" y="0px"
	 viewBox="0 0 363 258" style="enable-background:new 0 0 363 258;" xml:space="preserve">
<style type="text/css">
	.st0{fill:none;}
	.st1{fill:#FFFFFF;}
</style>
<path class="st0" d="M255.34,99.04c-30.24,0-55.4,22.1-60.21,51h59.98v21h-59.82c5.18,28.45,30.12,50.1,60.04,50.1
	c33.66,0,61.05-27.39,61.05-61.05S289,99.04,255.34,99.04z"/>
<path class="st1" d="M255.34,78.04c-25.7,0-48.67,11.89-63.72,30.44V15.54h-21v134.5H70.96l56.83-56.83l-14.85-14.85l-66.33,66.33
	V16.04h-21v225h21v-64.9l66.33,66.33l14.85-14.85l-56.58-56.58h99.4v69.5h21v-28.85c15.06,18.55,38.02,30.44,63.72,30.44
	c45.24,0,82.05-36.81,82.05-82.05S300.58,78.04,255.34,78.04z M255.34,221.13c-29.92,0-54.87-21.64-60.04-50.1h59.82v-21h-59.98
	c4.81-28.9,29.97-51,60.21-51c33.66,0,61.05,27.39,61.05,61.05S289,221.13,255.34,221.13z"/>
</svg>
